<?xml version="1.0" encoding="UTF-8"?><svg id="Layer_2" xmlns="http://www.w3.org/2000/svg" xmlns:xlink="http://www.w3.org/1999/xlink" viewBox="0 0 885.9 433.7"><defs><style>.cls-1{clip-path:url(#clippath);}.cls-2{fill:none;}.cls-2,.cls-3,.cls-4,.cls-5,.cls-6,.cls-7,.cls-8{stroke-width:0px;}.cls-3{fill:url(#linear-gradient);}.cls-4{fill:url(#linear-gradient-4);}.cls-5{fill:url(#linear-gradient-2);}.cls-6{fill:url(#linear-gradient-3);}.cls-7{fill:url(#linear-gradient-5);}.cls-8{fill:#4e4e4e;}</style><clipPath id="clippath"><rect class="cls-2" y="0" width="885.9" height="433.7"/></clipPath><linearGradient id="linear-gradient" x1="-611.75" y1="-266.47" x2="-607.38" y2="-266.47" gradientTransform="translate(-10607.49 -24551.51) rotate(-90) scale(40.62 -40.62)" gradientUnits="userSpaceOnUse"><stop offset="0" stop-color="#a76427"/><stop offset="1" stop-color="#f99d1c"/><stop offset="1" stop-color="#f99d1c"/></linearGradient><linearGradient id="linear-gradient-2" x1="-621.71" y1="-275.08" x2="-617.34" y2="-275.08" gradientTransform="translate(-6575.61 -14782.57) rotate(-90) scale(24.28 -24.28)" gradientUnits="userSpaceOnUse"><stop offset="0" stop-color="#0e763c"/><stop offset="1" stop-color="#44b649"/><stop offset="1" stop-color="#44b649"/></linearGradient><linearGradient id="linear-gradient-3" y1="-276.98" y2="-276.98" xlink:href="#linear-gradient-2"/><linearGradient id="linear-gradient-4" y1="-278.67" y2="-278.67" xlink:href="#linear-gradient-2"/><linearGradient id="linear-gradient-5" x1="-618.31" y1="-274.37" x2="-613.94" y2="-274.37" gradientTransform="translate(-7726.73 -17600.43) rotate(-90) scale(29 -29)" gradientUnits="userSpaceOnUse"><stop offset="0" stop-color="#0bafe6"/><stop offset="1" stop-color="#76d0eb"/><stop offset="1" stop-color="#76d0eb"/></linearGradient></defs><g id="Layer_1-2"><g class="cls-1"><path class="cls-8" d="m493.93,210.09c0,15.76-12,26.35-30.24,26.35h-43.53v-87.07h44.48c14.35,0,24,9.41,24,23.65,0,6.59-3.18,12.36-8.94,16.59,8.94,3.76,14.23,11.06,14.23,20.47m-37.65-28.36c4.47,0,7.41-2.47,7.41-6.23s-2.82-6.12-6.82-6.12h-12.47v12.35h11.88Zm12.71,27.3c0-4.35-3.53-7.3-8.59-7.3h-16v14.71h15.77c5.3,0,8.83-2.94,8.83-7.41"/><path class="cls-8" d="m586.3,201.62c0,21.65-16.12,36.01-40.36,36.01s-40.48-14.36-40.48-36.01v-52.24h24.24v51.18c0,10.24,6.48,17.07,16.36,17.07s16-6.82,16-17.07v-51.18h24.24v52.24Z"/><polygon class="cls-8" points="627.26 202.09 627.26 236.45 603.02 236.45 603.02 149.37 627.26 149.37 627.26 181.5 651.74 149.37 680.68 149.37 647.38 191.73 682.68 236.45 653.74 236.45 627.38 202.09 627.26 202.09"/><rect class="cls-8" x="689.51" y="149.37" width="24.24" height="87.07"/><polygon class="cls-8" points="773.76 169.38 773.76 236.45 749.52 236.45 749.52 169.38 724.46 169.38 724.46 149.37 798.83 149.37 798.83 169.38 773.76 169.38"/><polygon class="cls-8" points="435.31 277.94 435.31 309.22 431.8 309.22 431.8 277.94 420.75 277.94 420.75 275.03 446.31 275.03 446.31 277.94 435.31 277.94"/><polygon class="cls-8" points="477.69 309.22 456.2 309.22 456.2 275.02 477.27 275.02 477.27 277.94 459.71 277.94 459.71 290.32 476.11 290.32 476.11 293.23 459.71 293.23 459.71 306.31 477.69 306.31 477.69 309.22"/><path class="cls-8" d="m504.39,277.47c-8.23,0-13.73,5.82-13.73,14.56s5.45,14.75,13.64,14.75c5.08,0,8.97-2.4,11.42-5.96l2.4,2.22c-3.05,4.11-7.9,6.65-13.87,6.65-10.35,0-17.28-7.07-17.28-17.66s6.93-17.47,17.28-17.47c5.59,0,9.75,2.12,12.89,5.54l-2.22,2.26c-2.4-2.77-5.87-4.9-10.54-4.9"/><polygon class="cls-8" points="557.3 309.22 553.79 309.22 553.79 293.32 532.4 293.32 532.4 309.22 528.88 309.22 528.88 275.02 532.4 275.02 532.4 290.37 553.79 290.37 553.79 275.02 557.3 275.02 557.3 309.22"/><polygon class="cls-8" points="600.74 309.22 598.48 309.22 574.72 281.13 574.77 309.22 571.25 309.22 571.25 275.02 573.52 275.02 597.28 303.12 597.23 275.02 600.74 275.02 600.74 309.22"/><path class="cls-8" d="m612.42,292.13c0-10.54,6.89-17.56,17.15-17.56s17.05,7.03,17.05,17.56-6.84,17.56-17.05,17.56-17.15-7.03-17.15-17.56m30.55,0c0-8.78-5.41-14.65-13.4-14.65s-13.45,5.87-13.45,14.65,5.37,14.65,13.45,14.65,13.4-5.87,13.4-14.65"/><polygon class="cls-8" points="678 309.22 658.31 309.22 658.31 275.02 661.82 275.02 661.82 306.31 678 306.31 678 309.22"/><path class="cls-8" d="m683.86,292.13c0-10.54,6.89-17.56,17.15-17.56s17.05,7.03,17.05,17.56-6.84,17.56-17.05,17.56-17.15-7.03-17.15-17.56m30.55,0c0-8.78-5.41-14.65-13.4-14.65s-13.45,5.87-13.45,14.65,5.37,14.65,13.45,14.65,13.4-5.87,13.4-14.65"/><path class="cls-8" d="m760.44,292.13c-.05,10.72-6.29,17.56-16.13,17.56s-16.77-7.03-16.77-17.56,6.65-17.56,16.77-17.56c4.53,0,8.09,1.02,11.42,3.51l-2.31,2.27c-2.45-1.99-5.45-2.87-9.11-2.87-7.86,0-13.08,5.87-13.08,14.65s5.22,14.65,13.12,14.65c7.3,0,12.02-5.09,12.39-12.75h-10.86v-2.96h14.56v1.06Z"/><polygon class="cls-8" points="782.19 295.36 782.19 309.22 778.68 309.22 778.68 295.36 766.02 275.03 769.86 275.03 780.49 292.22 791.02 275.03 794.86 275.03 782.19 295.36"/></g><path class="cls-3" d="m216.85,87.07c-71.68,0-129.78,58.1-129.78,129.78,0,10.88,1.36,21.45,3.88,31.55l58.49-63.68c12.55-13.66,34.1-13.66,46.65,0l10.76,11.71,30.75-33.48c12.54-13.67,34.1-13.67,46.65,0l61.7,67.18c.45-4.36.67-8.79.67-13.27,0-71.68-58.1-129.78-129.78-129.78Z"/><path class="cls-5" d="m114.66,296.8c-11.04-14.09-19.24-30.5-23.71-48.4"/><path class="cls-6" d="m172.77,174.47c-8.52,0-17.05,3.42-23.33,10.25l-58.49,63.68c4.47,17.9,12.67,34.31,23.71,48.4l92.19-100.37-10.76-11.71c-6.27-6.83-14.8-10.25-23.33-10.25Z"/><path class="cls-4" d="m172.77,174.47c8.52,0,17.05,3.42,23.33,10.25l10.76,11.71"/><path class="cls-7" d="m260.93,152.7c-8.52,0-17.05,3.42-23.32,10.25l-30.75,33.48-92.19,100.37c23.75,30.32,60.68,49.83,102.19,49.83,36.18,0,68.88-14.82,92.42-38.69,20.18-20.47,33.62-47.6,36.69-77.81l-61.7-67.18c-6.27-6.83-14.8-10.25-23.33-10.25Z"/><rect class="cls-2" width="885.9" height="433.7"/></g></svg>